<svg width="174" height="174" viewBox="0 0 174 174" fill="none" xmlns="http://www.w3.org/2000/svg">
<path d="M29.6909 123.223C27.8068 124.388 27.2149 126.868 28.4841 128.684C37.1397 141.067 49.5256 150.416 63.8854 155.33C79.5132 160.677 96.5119 160.441 111.985 154.66C127.458 148.88 140.448 137.913 148.742 123.629C157.036 109.345 160.12 92.6266 157.469 76.3231C154.819 60.0197 146.597 45.1397 134.205 34.2185C121.813 23.2974 106.018 17.0107 89.511 16.4298C73.0037 15.8489 56.8056 21.0096 43.6768 31.0327C31.6133 40.2424 22.827 53.0338 18.5401 67.5211C17.9115 69.6454 19.2585 71.8099 21.4147 72.3183C23.5709 72.8266 25.7186 71.4858 26.3622 69.366C30.2131 56.6842 37.957 45.4926 48.545 37.4094C60.1986 28.5126 74.5764 23.9317 89.2288 24.4474C103.881 24.963 117.902 30.5432 128.901 40.2372C139.9 49.9312 147.198 63.1391 149.551 77.6106C151.904 92.082 149.166 106.922 141.804 119.601C134.442 132.28 122.912 142.014 109.177 147.145C95.4431 152.276 80.3545 152.486 66.4827 147.739C53.8794 143.426 42.9889 135.264 35.3189 124.456C34.0368 122.649 31.5751 122.058 29.6909 123.223Z" fill="#051C3D"/>
<g filter="url(#filter0_f_0_162)">
<circle cx="86.61" cy="87.3901" r="54.6188" fill="#FFA500"/>
</g>
<path d="M145.508 145.508C147.171 147.171 149.875 147.177 151.454 145.436C164.808 130.706 172.746 111.807 173.864 91.8704C175.061 70.5142 168.349 49.4652 155.01 32.7443C141.67 16.0235 122.639 4.80268 101.55 1.22535C80.4617 -2.35197 58.7944 1.96491 40.6871 13.3514C22.5799 24.7379 9.30189 42.3959 3.38953 62.9523C-2.52282 83.5088 -0.655153 105.523 8.63578 124.79C17.9267 144.056 33.9897 159.225 53.7564 167.398C72.2088 175.028 92.6814 176.062 111.742 170.408C113.996 169.739 115.162 167.299 114.384 165.08C113.606 162.862 111.179 161.706 108.921 162.363C91.8393 167.332 73.5273 166.36 57.0096 159.53C39.1773 152.157 24.6863 138.473 16.3046 121.091C7.92284 103.71 6.23794 83.8505 11.5717 65.3057C16.9055 46.7609 28.8841 30.8309 45.2193 20.5587C61.5546 10.2865 81.1015 6.39207 100.126 9.61932C119.151 12.8466 136.32 22.9693 148.354 38.0538C160.388 53.1384 166.443 72.1275 165.363 91.3938C164.362 109.24 157.305 126.165 145.425 139.408C143.856 141.158 143.846 143.846 145.508 145.508Z" fill="#051C3D"/>
<defs>
<filter id="filter0_f_0_162" x="1.99121" y="2.7713" width="169.238" height="169.238" filterUnits="userSpaceOnUse" color-interpolation-filters="sRGB">
<feFlood flood-opacity="0" result="BackgroundImageFix"/>
<feBlend mode="normal" in="SourceGraphic" in2="BackgroundImageFix" result="shape"/>
<feGaussianBlur stdDeviation="15" result="effect1_foregroundBlur_0_162"/>
</filter>
</defs>
</svg>
