<svg width="250" height="250" viewBox="0 0 250 250" fill="none" xmlns="http://www.w3.org/2000/svg">
<path d="M42.6596 177.044C39.9525 178.719 39.1021 182.281 40.9257 184.89C53.3618 202.682 71.1578 216.115 91.7895 223.175C114.243 230.858 138.667 230.518 160.898 222.213C183.13 213.908 201.794 198.151 213.71 177.628C225.626 157.105 230.058 133.084 226.249 109.66C222.441 86.2352 210.628 64.8559 192.824 49.1646C175.02 33.4732 152.325 24.4407 128.608 23.6061C104.891 22.7714 81.6175 30.1863 62.7542 44.5872C45.4217 57.8196 32.7976 76.198 26.6383 97.0131C25.7352 100.065 27.6704 103.175 30.7685 103.906C33.8665 104.636 36.9522 102.71 37.877 99.6638C43.4099 81.4429 54.5362 65.363 69.7488 53.7491C86.4924 40.9663 107.15 34.3847 128.203 35.1255C149.255 35.8664 169.399 43.8839 185.203 57.812C201.006 71.7402 211.492 90.7171 214.872 111.509C218.253 132.302 214.319 153.623 203.742 171.84C193.164 190.057 176.598 204.044 156.864 211.415C137.131 218.787 115.452 219.089 95.5214 212.269C77.4131 206.072 61.7659 194.345 50.7458 178.816C48.9037 176.22 45.3667 175.37 42.6596 177.044Z" fill="#051C3D"/>
<g filter="url(#filter0_f_0_166)">
<circle cx="124.439" cy="125.56" r="78.4753" fill="#FFA500"/>
</g>
<path d="M209.063 209.063C211.452 211.452 215.337 211.462 217.606 208.959C236.794 187.797 248.198 160.642 249.804 131.998C251.524 101.313 241.881 71.0707 222.715 47.0465C203.549 23.0222 176.205 6.9004 145.906 1.76056C115.606 -3.37927 84.4746 2.82315 58.4585 19.183C32.4423 35.5429 13.3648 60.9136 4.87002 90.4488C-3.62475 119.984 -0.941312 151.613 12.4077 179.295C25.7568 206.977 48.8358 228.771 77.2362 240.515C103.748 251.477 133.163 252.963 160.549 244.839C163.788 243.878 165.462 240.372 164.344 237.184C163.226 233.997 159.739 232.336 156.496 233.28C131.953 240.419 105.643 239.023 81.9104 229.21C56.2893 218.616 35.4688 198.955 23.4261 173.982C11.3834 149.009 8.96256 120.475 16.626 93.83C24.2895 67.1852 41.5001 44.2973 64.9703 29.5384C88.4405 14.7795 116.525 9.18402 143.86 13.8209C171.194 18.4577 195.863 33.0018 213.153 54.6751C230.443 76.3483 239.143 103.631 237.591 131.313C236.153 156.954 226.012 181.272 208.945 200.298C206.689 202.813 206.675 206.675 209.063 209.063Z" fill="#051C3D"/>
<defs>
<filter id="filter0_f_0_166" x="15.9639" y="17.085" width="216.951" height="216.951" filterUnits="userSpaceOnUse" color-interpolation-filters="sRGB">
<feFlood flood-opacity="0" result="BackgroundImageFix"/>
<feBlend mode="normal" in="SourceGraphic" in2="BackgroundImageFix" result="shape"/>
<feGaussianBlur stdDeviation="15" result="effect1_foregroundBlur_0_166"/>
</filter>
</defs>
</svg>
